<?xml version="1.0" ?><svg id="Layer_1" style="enable-background:new 0 0 64 64;" version="1.1" viewBox="0 0 64 64" xml:space="preserve" xmlns="http://www.w3.org/2000/svg" xmlns:xlink="http://www.w3.org/1999/xlink"><style type="text/css">
	.st0{fill:#91AAB4;}
	.st1{fill:#193441;}
	.st2{fill:#3E606F;}
	.st3{fill:#998675;}
	.st4{fill:#C7B299;}
</style><g id="Layer_23"><path class="st0" d="M39,36l14.5,3.5c2.7,0.9,4.8,3.2,5.3,6.1L62,62H2l3.1-16.4c0.5-2.8,2.6-5.2,5.3-6.1L25,36H39z"/><rect class="st1" height="4" width="10" x="38" y="58"/><rect class="st2" height="4" width="10" x="38" y="54"/><rect class="st2" height="4" width="10" x="16" y="54"/><polygon class="st3" points="43.6,38.4 32,50 20.4,38.4 20.1,37.2 25,36 39,36 43.9,37.2  "/><polygon class="st2" points="20.1,37.2 24,50 30,44 23.3,36.4  "/><polygon class="st2" points="40.7,36.4 34,44 40,50 43.9,37.2  "/><path class="st4" d="M19,20l1.4,8.5c0.4,2.3,1.5,4.3,3.1,6l0.3,0.3c2.1,2.1,4.9,3.2,7.8,3.2h0.9c2.9,0,5.7-1.2,7.8-3.2l0.3-0.3   c1.6-1.6,2.7-3.7,3.1-6L45,20"/><polyline class="st0" points="19,15 15,15 15,19 19,19  "/><polyline class="st0" points="45,19 49,19 49,15 45,15  "/><path class="st2" d="M23,24l-4-4v-4c0-7.7,5.8-14,13-14s13,6.3,13,14v4l-4,4H23z"/><path class="st0" d="M30,2.2c-1.4,0.2-2.8,0.7-4,1.4V16h4V2.2z"/><path class="st0" d="M34,2.2V16h4V3.6C36.8,2.9,35.4,2.4,34,2.2z"/><polygon class="st0" points="41,24 45,20 19,20 23,24  "/><rect class="st2" height="13" width="2" x="31" y="49"/></g></svg>