<?xml version="1.0" ?><svg height="64" id="svg8" version="1.1" viewBox="0 0 16.933333 16.933333" width="64" xmlns="http://www.w3.org/2000/svg" xmlns:cc="http://creativecommons.org/ns#" xmlns:dc="http://purl.org/dc/elements/1.1/" xmlns:inkscape="http://www.inkscape.org/namespaces/inkscape" xmlns:rdf="http://www.w3.org/1999/02/22-rdf-syntax-ns#" xmlns:sodipodi="http://sodipodi.sourceforge.net/DTD/sodipodi-0.dtd" xmlns:svg="http://www.w3.org/2000/svg"><defs id="defs2"/><g id="layer2"><path d="m 2.1169244,1.0583331 c -0.5817401,0 -1.0583334,0.476573 -1.0583333,1.058333 V 8.4661489 H 15.874742 V 2.1166661 c 0,-0.58176 -0.47711,-1.058333 -1.058851,-1.058333 z m 5.8208338,0.799951 h 1.05885 c 0.1463199,-5.583e-4 0.265326,0.117745 0.265616,0.264067 l 5.292e-4,0.542602 c 0.04041,0.01558 0.09021,0.0374 0.129708,0.05529 l 0.3849891,-0.383439 c 0.10528,-0.104662 0.2698945,-0.102598 0.3731045,0 l 0.747758,0.746207 c 0.10398,0.103445 0.10398,0.271726 0,0.375171 l -0.382922,0.383956 c 0.0175,0.03928 0.03854,0.08949 0.05374,0.129708 h 0.544152 c 0.146111,5.821e-4 0.26411,0.119497 0.26355,0.2656171 V 5.293729 c -2.91e-4,0.1455151 -0.11804,0.2634851 -0.26355,0.2640672 h -0.543119 c -0.0152,0.04023 -0.03624,0.09094 -0.05374,0.1302239 l 0.383956,0.3865397 c 0.1037,0.1033869 0.10208,0.270234 -0.0016,0.373621 l -0.747758,0.746208 c -0.10321,0.1025981 -0.2698935,0.1025981 -0.3731035,0 L 9.3939621,6.8114698 c -0.03947,0.017891 -0.09137,0.03816 -0.1317749,0.05374 v 0.542085 C 9.2627428,7.554223 9.143499,7.6734678 8.996569,7.6729119 H 7.9377193 C 7.7915981,7.6723298 7.6736191,7.5534149 7.6741691,7.4072948 V 6.8641759 c -0.04026,-0.015251 -0.09196,-0.03621 -0.131259,-0.05374 L 7.158438,7.1943919 c -0.1033899,0.103628 -0.2712738,0.103628 -0.3746539,0 L 6.0355091,6.4481847 c -0.1036299,-0.1033869 -0.1036299,-0.2712677 0,-0.3746539 L 6.4204982,5.6890581 c -0.0179,-0.0394 -0.04021,-0.09089 -0.05581,-0.131258 H 5.822602 C 5.6762721,5.5583558 5.5572752,5.440055 5.5569853,5.293733 V 4.2374672 C 5.5564296,4.090539 5.675672,3.971295 5.822602,3.9718501 h 0.54312 c 0.0156,-0.04011 0.03594,-0.09055 0.05374,-0.129708 L 6.0355051,3.4581861 c -0.1039699,-0.103445 -0.1039699,-0.271726 0,-0.375171 l 0.748275,-0.746207 c 0.1033801,-0.10363 0.271264,-0.10363 0.374654,0 l 0.3855061,0.383439 c 0.03922,-0.0175 0.09003,-0.03904 0.130225,-0.05426 v -0.543636 c 2.91e-4,-0.145515 0.1180399,-0.263484 0.2635498,-0.264067 z m 0.266133,0.529683 v 0.470256 c -5.028e-4,0.11904 -0.08045,0.223088 -0.1953372,0.254248 -0.1354698,0.03719 -0.2646658,0.09133 -0.3870557,0.160197 -0.103641,0.05911 -0.2340272,0.04154 -0.3183271,-0.04289 l -0.3317632,-0.33228 -0.3731037,0.373104 0.3317629,0.33383 c 0.0844,0.0843 0.1019921,0.214683 0.04289,0.3183259 -0.06984,0.1218181 -0.123647,0.251982 -0.161747,0.3870571 -0.03271,0.113253 -0.1363781,0.1912141 -0.2542481,0.191203 H 6.0861892 V 5.028117 h 0.4707721 c 0.1186,3.175e-4 0.2225479,0.07951 0.2542479,0.1937872 0.03813,0.1350759 0.09195,0.2647228 0.161748,0.3865398 0.0591,0.1036439 0.04151,0.2340272 -0.04289,0.3183271 L 6.5983043,6.2605999 6.971408,6.633704 7.3031701,6.3019408 c 0.08381,-0.08512 0.2142371,-0.1035381 0.3183271,-0.04496 0.1223799,0.06887 0.251587,0.1230069 0.3870568,0.160197 0.1154401,0.03131 0.1955171,0.1361829 0.1953372,0.2557978 V 7.1437479 H 8.733057 V 6.6750427 c 2.5e-4,-0.1184547 0.0792,-0.2223079 0.1932702,-0.2542479 0.1354389,-0.03808 0.2644198,-0.09199 0.3865398,-0.1617469 0.1032002,-0.05964 0.2335271,-0.04293 0.3183275,0.04082 L 9.9655405,6.633698 10.338645,6.2605939 10.006366,5.9288321 c -0.0834,-0.08396 -0.1008925,-0.2131111 -0.04289,-0.3162599 0.06899,-0.122368 0.122996,-0.2537101 0.160197,-0.3891241 0.03112,-0.1147069 0.134881,-0.194596 0.253731,-0.1953368 h 0.472839 V 4.501012 h -0.472839 c -0.11827,-4.76e-4 -0.221831,-0.07938 -0.253731,-0.1932699 -0.03717,-0.135404 -0.0912,-0.266233 -0.160197,-0.3886071 -0.0583,-0.1032719 -0.04081,-0.2327259 0.04289,-0.3167759 l 0.332279,-0.331763 -0.3731045,-0.373104 -0.334346,0.33228 C 9.5468845,3.3142021 9.416517,3.3317731 9.312867,3.2726621 9.190747,3.2028921 9.061756,3.1484681 8.9263272,3.1103981 8.8124571,3.0785181 8.733538,2.9749311 8.733057,2.8566671 V 2.3879611 Z M 8.467441,3.7083 c 0.5813391,0 1.0583331,0.477021 1.0583331,1.0583341 0,0.5813131 -0.476994,1.05885 -1.0583331,1.05885 -0.5813499,0 -1.0588498,-0.477538 -1.0588498,-1.05885 C 7.408601,4.185321 7.8860911,3.7083 8.467441,3.7083 Z m 0,0.5291672 c -0.29542,0 -0.5296828,0.2338898 -0.5296828,0.5291669 0,0.295276 0.2342628,0.5291658 0.5296828,0.5291658 0.2954102,0 0.5291672,-0.2338898 0.5291672,-0.5291658 0,-0.2952771 -0.233757,-0.5291669 -0.5291672,-0.5291669 z M 1.0585911,8.9958328 v 0.5296833 c 0,0.5817619 0.4765932,1.0583339 1.0583333,1.0583339 H 14.815891 c 0.581741,0 1.058851,-0.476572 1.058851,-1.0583339 V 8.9958328 Z m 5.7763912,2.1177012 c -0.07262,0.945034 -0.4902142,2.298077 -0.6717933,2.9099 h 4.606955 c -0.18158,-0.611823 -0.598737,-1.964866 -0.671277,-2.9099 z m -2.0722241,3.43855 c -0.1465799,0 -0.2645841,0.117999 -0.2645841,0.264583 v 0.79375 c 0,0.146584 0.1180042,0.264583 0.2645841,0.264583 h 7.4078168 c 0.146579,0 0.264583,-0.117999 0.264583,-0.264583 v -0.79375 c 0,-0.146584 -0.118004,-0.264583 -0.264583,-0.264583 z" id="path1744" style="color:#000000;font-style:normal;font-variant:normal;font-weight:normal;font-stretch:normal;font-size:medium;line-height:normal;font-family:sans-serif;font-variant-ligatures:normal;font-variant-position:normal;font-variant-caps:normal;font-variant-numeric:normal;font-variant-alternates:normal;font-feature-settings:normal;text-indent:0;text-align:start;text-decoration:none;text-decoration-line:none;text-decoration-style:solid;text-decoration-color:#000000;letter-spacing:normal;word-spacing:normal;text-transform:none;writing-mode:lr-tb;direction:ltr;text-orientation:mixed;dominant-baseline:auto;baseline-shift:baseline;text-anchor:start;white-space:normal;shape-padding:0;clip-rule:nonzero;display:inline;overflow:visible;visibility:visible;opacity:1;isolation:auto;mix-blend-mode:normal;color-interpolation:sRGB;color-interpolation-filters:linearRGB;solid-color:#000000;solid-opacity:1;vector-effect:none;fill:#000000;fill-opacity:1;fill-rule:nonzero;stroke:none;stroke-width:0.52916664;stroke-linecap:round;stroke-linejoin:round;stroke-miterlimit:4;stroke-dasharray:none;stroke-dashoffset:0;stroke-opacity:1;color-rendering:auto;image-rendering:auto;shape-rendering:auto;text-rendering:auto;enable-background:accumulate"/></g></svg>